<?xml version="1.0" standalone="no"?>
<!DOCTYPE svg PUBLIC "-//W3C//DTD SVG 20010904//EN"
 "http://www.w3.org/TR/2001/REC-SVG-20010904/DTD/svg10.dtd">
<svg version="1.0" xmlns="http://www.w3.org/2000/svg"
 width="300.000000pt" height="300.000000pt" viewBox="0 0 300.000000 300.000000"
 preserveAspectRatio="xMidYMid meet">
<metadata>
Created by potrace 1.10, written by Peter Selinger 2001-2011
</metadata>
<g transform="translate(0.000000,300.000000) scale(0.100000,-0.100000)"
fill="#000000" stroke="none">
<path d="M320 2905 l-24 -25 32 16 c18 8 32 20 32 25 0 16 -16 10 -40 -16z"/>
<path d="M2010 2897 c-13 -18 -17 -26 -7 -18 15 12 21 9 18 -11 0 -5 8 -5 38
1 2 1 -2 7 -8 15 -8 10 -9 16 -1 21 11 6 5 25 -8 24 -4 0 -18 -14 -32 -32z
m31 -14 c13 -16 12 -17 -3 -4 -10 7 -18 15 -18 17 0 8 8 3 21 -13z"/>
<path d="M1017 2832 c-45 -46 -59 -72 -37 -72 6 0 10 -12 10 -27 0 -22 -2 -25
-10 -13 -5 8 -10 10 -10 5 0 -16 75 -87 83 -78 4 4 -6 20 -22 37 -41 44 -47
87 -16 116 13 12 23 27 22 33 -1 6 4 11 11 12 6 0 12 4 11 10 0 5 8 12 18 16
13 6 14 8 3 8 -9 1 -37 -21 -63 -47z m13 -5 c0 -2 -12 -14 -27 -28 l-28 -24
24 28 c23 25 31 32 31 24z m-4 -149 l29 -33 -32 29 c-18 17 -33 31 -33 33 0 8
8 1 36 -29z"/>
<path d="M1130 2870 c9 -6 10 -10 3 -10 -7 0 7 -18 30 -39 23 -22 46 -37 50
-34 10 6 -72 93 -88 93 -5 0 -3 -5 5 -10z m50 -45 c19 -19 32 -35 29 -35 -3 0
-20 16 -39 35 -19 19 -32 35 -29 35 3 0 20 -16 39 -35z"/>
<path d="M2712 2837 c-25 -25 -39 -47 -34 -51 6 -3 13 -2 17 4 3 5 3 10 -1 10
-3 0 -1 7 6 15 7 8 16 13 20 10 9 -6 25 13 25 30 0 9 23 10 88 2 33 -4 34 -1
6 14 -17 9 -20 8 -14 -2 6 -9 3 -10 -11 -4 -47 19 -59 16 -102 -28z"/>
<path d="M301 2867 c-2 -17 20 -47 34 -47 19 0 28 17 14 26 -8 4 -9 3 -5 -4 4
-7 1 -12 -7 -12 -8 0 -19 10 -25 23 -6 12 -11 18 -11 14z"/>
<path d="M240 2823 c-21 -21 -26 -30 -13 -22 19 11 25 11 43 -6 11 -10 23 -15
27 -11 11 10 12 37 2 30 -5 -3 -7 -10 -4 -15 10 -15 -5 -10 -22 7 -13 13 -14
20 -5 35 17 27 12 24 -28 -18z"/>
<path d="M1959 2843 c-8 -9 -9 -14 -2 -10 6 4 13 4 16 0 2 -5 2 -2 1 5 -5 17
22 15 41 -4 13 -13 14 -19 4 -25 -7 -4 -17 -5 -21 -3 -4 3 -5 -2 -2 -10 5 -12
10 -11 30 7 14 12 20 23 15 25 -6 2 -8 9 -5 14 4 6 2 8 -4 4 -6 -3 -13 -2 -17
4 -10 16 -41 12 -56 -7z"/>
<path d="M2850 2826 c0 -2 8 -10 18 -17 15 -13 16 -12 3 4 -13 16 -21 21 -21
13z"/>
<path d="M1054 2804 c-18 -14 -18 -14 6 -3 31 14 36 19 24 19 -6 0 -19 -7 -30
-16z"/>
<path d="M1916 2801 c-10 -11 -15 -25 -11 -31 5 -8 11 -5 20 7 7 10 11 21 9
25 -3 5 0 8 6 8 16 0 40 -26 40 -42 0 -10 -2 -11 -8 0 -5 7 -16 10 -26 6 -15
-6 -15 -7 1 -20 15 -11 16 -13 2 -14 -9 0 -16 -7 -16 -15 0 -11 8 -8 29 12 33
31 35 44 10 66 -24 22 -35 21 -56 -2z"/>
<path d="M2788 2804 c12 -8 23 -25 23 -37 1 -18 2 -19 6 -4 5 19 -22 57 -41
57 -6 0 0 -7 12 -16z"/>
<path d="M2900 2800 c12 -23 4 -44 -12 -34 -6 4 -8 3 -5 -3 3 -5 -16 -32 -43
-58 -47 -46 -50 -48 -51 -25 -1 21 -2 22 -6 5 -3 -11 -9 -25 -15 -32 -5 -6 -5
-14 0 -17 5 -3 41 28 81 68 65 66 72 76 62 95 -7 11 -14 21 -17 21 -2 0 0 -9
6 -20z"/>
<path d="M2740 2795 c-7 -9 -11 -17 -9 -20 3 -2 10 5 17 15 14 24 10 26 -8 5z"/>
<path d="M240 2791 c0 -6 -1 -14 -2 -18 -2 -3 5 -7 15 -9 21 -3 22 3 2 22 -8
9 -15 11 -15 5z"/>
<path d="M1503 2783 c8 -13 -27 -28 -43 -18 -16 10 -12 -21 5 -35 16 -13 21
-35 7 -26 -17 10 -72 16 -72 7 0 -16 82 -21 97 -5 13 13 10 18 -9 15 -5 0 -8
5 -8 12 0 8 7 14 15 14 8 0 12 -4 10 -8 -3 -4 2 -10 11 -13 8 -3 13 -10 10
-15 -3 -5 3 -7 15 -4 12 4 18 11 15 20 -3 8 -6 18 -6 21 0 4 -5 0 -11 -8 -9
-13 -10 -13 -6 2 3 9 -3 24 -15 35 -12 10 -18 13 -15 6z"/>
<path d="M1555 2759 c9 -16 25 -39 36 -50 16 -16 18 -23 8 -35 -6 -8 -9 -15
-5 -15 3 -1 10 -2 15 -3 5 0 13 -4 17 -8 4 -4 17 -5 29 -2 13 3 26 1 29 -5 4
-6 12 -11 17 -11 6 0 7 5 4 10 -3 6 -2 10 4 10 5 0 12 -5 14 -10 3 -6 4 -5 3
2 -2 7 -13 12 -25 11 -11 -2 -20 2 -18 8 1 6 -5 14 -13 16 -13 4 -13 3 0 -6
11 -8 11 -11 2 -11 -7 0 -15 7 -18 15 -5 12 -10 13 -20 4 -11 -9 -14 -7 -15 7
-1 11 -3 26 -3 34 -3 30 -18 60 -27 54 -5 -3 -7 -11 -3 -17 3 -7 -3 -2 -14 11
-28 31 -35 28 -17 -9z"/>
<path d="M1630 2775 c-1 -11 -3 -30 -4 -43 -2 -13 1 -25 5 -28 12 -7 22 15 12
29 -4 7 5 -2 20 -20 41 -47 58 -44 45 6 -6 22 -16 42 -24 45 -11 4 -12 1 -4
-14 7 -13 7 -21 -2 -26 -6 -4 -8 -3 -5 3 3 5 -5 22 -18 39 -22 26 -24 27 -25
9z"/>
<path d="M171 2754 l-23 -27 28 -26 c27 -25 28 -25 7 -1 -21 24 -21 26 -5 46
9 12 24 24 32 27 13 5 13 6 -1 6 -8 1 -26 -11 -38 -25z"/>
<path d="M1030 2769 c0 -20 31 -49 54 -49 11 0 15 -5 10 -12 -4 -7 7 0 24 16
32 30 41 43 22 31 -5 -3 -10 2 -10 12 0 14 -3 12 -13 -7 -8 -16 -21 -25 -37
-25 -16 0 -29 9 -37 25 -8 16 -13 19 -13 9z m100 -23 c0 -2 -8 -10 -17 -17
-16 -13 -17 -12 -4 4 13 16 21 21 21 13z"/>
<path d="M1403 2766 c4 -10 1 -19 -8 -22 -8 -4 -12 -10 -9 -15 3 -5 -2 -9 -10
-9 -10 0 -13 6 -9 16 4 11 2 15 -6 13 -17 -6 -16 -22 4 -34 12 -7 20 -5 30 8
8 12 15 14 20 7 3 -5 11 -8 16 -5 16 11 10 34 -13 46 -18 10 -20 9 -15 -5z"/>
<path d="M2667 2745 c4 -29 16 -51 44 -79 23 -25 37 -33 35 -23 -1 10 -17 33
-35 51 -24 24 -32 41 -28 55 3 12 1 19 -3 16 -5 -3 -11 1 -13 7 -3 7 -3 -5 0
-27z m49 -67 l29 -33 -32 29 c-31 28 -38 36 -30 36 2 0 16 -15 33 -32z"/>
<path d="M1724 2739 c4 -19 9 -49 11 -68 2 -19 9 -39 15 -45 8 -8 9 -6 5 7 -4
9 -4 17 -1 17 4 0 11 -11 16 -25 5 -14 14 -25 20 -25 16 0 12 15 -14 43 -19
21 -22 28 -11 37 17 14 49 2 36 -14 -6 -7 -5 -19 3 -34 l12 -23 22 24 c17 18
20 30 15 60 -8 50 -23 47 -20 -5 1 -26 -3 -43 -11 -46 -10 -3 -12 6 -8 37 4
37 -7 58 -16 29 -2 -6 -10 3 -17 20 -16 39 -35 43 -20 5 7 -18 6 -30 -1 -37
-10 -10 -14 2 -11 34 2 13 1 13 -9 0 -10 -12 -11 -11 -7 7 3 13 0 26 -5 29 -7
5 -8 -5 -4 -27z"/>
<path d="M1876 2761 c-4 -5 -2 -12 3 -15 5 -4 12 -2 15 3 4 5 2 12 -3 15 -5 4
-12 2 -15 -3z"/>
<path d="M2837 2752 c-23 -25 -83 -28 -96 -5 -6 10 -11 13 -11 7 0 -16 20 -30
52 -36 21 -4 34 2 54 23 15 16 25 29 22 29 -3 0 -12 -8 -21 -18z"/>
<path d="M1174 2728 l-29 -33 33 29 c17 17 32 31 32 33 0 8 -8 1 -36 -29z"/>
<path d="M226 2738 c3 -4 12 -8 20 -8 8 0 14 4 14 8 0 4 -9 8 -19 8 -11 0 -17
-4 -15 -8z"/>
<path d="M1276 2718 c-9 -5 -21 -6 -28 -2 -7 5 -8 3 -3 -6 6 -10 4 -12 -9 -7
-34 13 -37 -5 -4 -28 36 -24 68 -29 68 -9 0 7 -8 21 -17 30 -17 17 -17 17 2
10 11 -5 26 -9 32 -9 10 0 10 -4 1 -14 -8 -11 -7 -12 6 -7 9 3 16 10 16 14 0
5 10 6 23 3 20 -4 20 -4 -3 9 -38 21 -65 27 -84 16z m-6 -33 c11 -13 10 -14
-4 -9 -9 3 -16 10 -16 15 0 13 6 11 20 -6z"/>
<path d="M190 2716 c0 -2 8 -10 18 -17 15 -13 16 -12 3 4 -13 16 -21 21 -21
13z"/>
<path d="M1865 2700 c-3 -5 -1 -10 4 -10 6 0 11 5 11 10 0 6 -2 10 -4 10 -3 0
-8 -4 -11 -10z"/>
<path d="M106 2684 c-9 -8 -16 -24 -16 -34 0 -24 28 -52 43 -43 6 4 2 9 -11
14 -24 9 -29 38 -10 57 16 16 36 15 54 -3 11 -11 12 -15 3 -15 -7 0 -10 -3 -6
-6 3 -3 11 -3 17 1 8 5 6 13 -6 26 -21 23 -47 24 -68 3z"/>
<path d="M1575 2690 c3 -5 11 -10 16 -10 6 0 7 5 4 10 -3 6 -11 10 -16 10 -6
0 -7 -4 -4 -10z"/>
<path d="M1403 2677 c5 -13 1 -14 -26 -6 -17 5 -33 5 -36 0 -4 -4 -13 -10 -21
-13 -8 -3 23 -4 70 -3 69 3 86 0 97 -13 11 -14 11 -12 1 11 -9 21 -17 27 -32
23 -10 -3 -28 0 -39 6 -16 8 -19 8 -14 -5z"/>
<path d="M1494 2674 c3 -9 6 -16 6 -17 0 -7 65 2 67 9 1 5 -5 8 -13 8 -8 -1
-14 1 -14 5 0 4 -12 8 -26 9 -20 1 -25 -2 -20 -14z"/>
<path d="M1143 2666 c0 -14 0 -14 72 -21 l50 -5 -30 18 c-35 22 -92 27 -92 8z"/>
<path d="M1891 2664 c0 -11 3 -14 6 -6 3 7 2 16 -1 19 -3 4 -6 -2 -5 -13z"/>
<path d="M1921 2664 c0 -11 3 -14 6 -6 3 7 2 16 -1 19 -3 4 -6 -2 -5 -13z"/>
<path d="M1935 2648 c-4 -18 -9 -28 -11 -22 -3 7 -14 10 -24 7 -12 -3 -20 0
-20 8 0 7 -10 3 -25 -11 -24 -22 -35 -47 -16 -36 5 4 12 0 14 -6 3 -7 6 -3 6
9 1 16 6 20 21 16 19 -5 19 -7 5 -23 -21 -23 -21 -47 0 -30 8 7 12 16 9 21 -3
5 4 9 16 9 25 0 72 -29 65 -40 -3 -5 4 -6 15 -3 11 3 20 1 20 -5 0 -20 31 -21
52 -3 l20 20 -21 -6 c-11 -3 -29 -2 -38 2 -16 6 -16 8 -2 18 8 7 15 22 15 34
0 18 -3 20 -14 10 -10 -8 -11 -12 -3 -15 16 -5 -6 -32 -26 -32 -11 0 -14 7
-11 24 3 14 2 30 -2 37 -10 15 -30 2 -29 -19 0 -14 2 -13 9 3 8 19 9 19 9 -2
1 -13 -4 -23 -9 -23 -17 0 -23 28 -12 60 6 16 7 30 3 30 -5 0 -12 -15 -16 -32z"/>
<path d="M1126 2640 c17 -15 82 -21 90 -9 4 7 3 9 -4 5 -6 -3 -30 -2 -53 3
-23 5 -37 6 -33 1z"/>
<path d="M1110 2621 l25 -21 -33 11 c-18 6 -36 9 -39 5 -11 -10 60 -34 91 -30
30 4 30 3 8 -8 -16 -8 -32 -9 -50 -2 -31 11 -72 7 -72 -7 0 -5 15 -8 33 -7 17
0 52 -2 77 -5 30 -5 40 -4 30 2 -12 9 -12 11 3 17 9 3 14 10 11 15 -8 13 10
11 25 -3 10 -11 11 -9 5 7 -7 20 -7 20 15 0 19 -17 20 -21 7 -23 -22 -5 -20
-18 3 -18 11 0 17 5 14 10 -4 5 8 7 28 3 24 -5 30 -4 19 3 -8 5 -22 10 -30 10
-9 0 -24 9 -33 21 -18 21 -18 21 15 15 29 -5 30 -5 9 4 -19 8 -33 7 -58 -5
-27 -13 -37 -14 -49 -5 -8 7 -14 10 -14 6 0 -4 -15 1 -32 9 l-33 16 25 -20z"/>
<path d="M1397 2625 c-6 -15 10 -32 20 -21 4 3 1 6 -5 6 -6 0 -9 7 -6 15 4 8
4 15 1 15 -3 0 -7 -7 -10 -15z"/>
<path d="M1442 2629 c3 -8 11 -14 19 -14 8 0 18 -6 22 -12 4 -7 14 -13 22 -13
9 0 12 -6 9 -15 -4 -8 -1 -15 6 -15 6 0 8 5 5 10 -3 6 0 10 7 10 11 0 -48 43
-62 45 -3 0 -11 4 -19 9 -9 6 -12 5 -9 -5z"/>
<path d="M1537 2624 c3 -10 13 -23 21 -28 9 -5 11 -11 4 -15 -6 -3 7 -7 30 -7
26 -1 35 2 27 7 -8 5 -22 9 -31 9 -17 0 -23 12 -18 35 1 6 -2 7 -6 3 -4 -4
-13 -3 -21 4 -11 9 -12 7 -6 -8z"/>
<path d="M1584 2613 c4 -4 19 -9 34 -10 21 -3 24 -1 12 7 -17 11 -57 14 -46 3z"/>
<path d="M1660 2580 c6 -11 13 -20 16 -20 2 0 0 9 -6 20 -6 11 -13 20 -16 20
-2 0 0 -9 6 -20z"/>
<path d="M1328 2578 c5 -5 16 -8 23 -6 8 3 3 7 -10 11 -17 4 -21 3 -13 -5z"/>
<path d="M1432 2585 c2 -1 19 -10 38 -19 23 -11 29 -12 18 -3 -10 8 -15 16
-12 19 2 3 -7 6 -21 6 -14 0 -25 -2 -23 -3z"/>
<path d="M1718 2583 c-16 -2 -28 -8 -28 -12 0 -12 39 -6 52 7 7 7 10 11 8 11
-3 -1 -17 -4 -32 -6z"/>
<path d="M1781 2568 c-1 -23 3 -28 22 -27 15 1 17 3 5 6 -9 2 -19 14 -21 26
-4 18 -5 17 -6 -5z"/>
<path d="M1373 2573 c4 -6 -5 -13 -21 -16 -15 -3 -36 -8 -47 -10 -11 -3 -30
-6 -42 -6 -16 -1 -21 -6 -17 -16 4 -9 18 -15 33 -14 l26 1 -25 7 c-25 7 -25 7
-3 13 13 4 27 0 34 -8 6 -8 17 -14 23 -14 6 0 3 5 -8 11 -15 9 -16 13 -5 20 8
5 24 9 36 9 26 0 38 15 22 26 -7 4 -9 3 -6 -3z"/>
<path d="M1422 2558 c9 -13 22 -23 29 -23 8 -1 13 -6 12 -12 -1 -6 10 -9 27
-7 34 4 84 -12 76 -24 -3 -5 1 -9 9 -9 8 0 13 3 10 5 -12 12 18 31 34 22 10
-5 23 -5 32 1 12 7 12 9 -1 10 -8 1 -21 1 -27 0 -7 -1 -13 3 -13 9 0 5 17 10
37 10 34 0 35 1 17 14 -13 10 -21 11 -26 3 -3 -5 -28 -10 -55 -9 -46 0 -47 0
-15 -9 26 -8 30 -12 20 -23 -10 -10 -17 -10 -38 0 -14 7 -46 19 -72 26 -26 6
-45 15 -42 19 2 4 -3 10 -12 13 -15 6 -15 4 -2 -16z"/>
<path d="M2045 2570 c-4 -6 6 -7 27 -3 44 8 48 13 10 13 -17 0 -34 -4 -37 -10z"/>
<path d="M1085 2550 c3 -5 -7 -8 -25 -5 -17 2 -28 0 -25 -6 4 -5 -4 -9 -17 -9
-13 -1 -38 -9 -57 -19 -26 -14 -30 -19 -17 -24 9 -4 22 -5 29 -3 6 1 9 1 4 -1
-4 -3 -4 -10 -1 -15 4 -7 2 -8 -4 -4 -6 4 -31 -2 -54 -13 -24 -11 -37 -20 -30
-21 7 0 26 7 42 15 25 13 30 13 30 2 0 -23 28 -15 39 11 7 15 17 22 26 18 9
-3 15 0 15 9 0 8 16 25 35 38 19 13 32 27 28 30 -10 11 -25 8 -18 -3z m-60
-40 c7 -11 6 -11 -45 -15 l-35 -2 30 13 c37 16 42 17 50 4z"/>
<path d="M1730 2550 c-9 -6 -10 -10 -3 -10 6 0 15 5 18 10 8 12 4 12 -15 0z"/>
<path d="M1836 2543 c-6 -14 -5 -15 5 -6 7 7 10 15 7 18 -3 3 -9 -2 -12 -12z"/>
<path d="M1372 2543 c-18 -2 -30 -8 -27 -12 6 -10 53 -2 61 10 3 5 4 8 2 7 -2
0 -18 -3 -36 -5z"/>
<path d="M1160 2530 c-9 -6 -10 -10 -3 -10 6 0 15 5 18 10 8 12 4 12 -15 0z"/>
<path d="M1118 2523 c7 -3 16 -2 19 1 4 3 -2 6 -13 5 -11 0 -14 -3 -6 -6z"/>
<path d="M1198 2523 c-10 -2 -18 -10 -18 -18 0 -7 -26 -23 -57 -36 -32 -13
-63 -30 -69 -38 -7 -8 -16 -11 -24 -6 -10 6 -9 11 5 22 11 7 14 13 8 13 -7 0
-15 -5 -18 -10 -4 -6 -10 -8 -15 -5 -12 8 -6 -21 9 -38 10 -13 9 -18 -11 -28
-13 -7 -26 -12 -30 -11 -5 1 -7 -4 -5 -11 1 -6 -3 -11 -9 -10 -6 1 -11 -5 -11
-13 0 -12 3 -12 16 0 9 7 26 12 37 10 12 -2 28 4 35 13 13 15 12 15 -9 4 -22
-12 -23 -11 -12 9 7 13 17 19 26 16 8 -3 13 -2 10 3 -5 7 48 65 56 61 1 -1 28
9 58 24 34 15 47 26 35 26 -20 1 -20 1 0 9 11 5 24 6 29 3 5 -3 6 0 2 6 -7 12
-9 13 -38 5z m-167 -110 c13 -16 12 -17 -3 -4 -10 7 -18 15 -18 17 0 8 8 3 21
-13z"/>
<path d="M1928 2523 c6 -2 18 -2 25 0 6 3 1 5 -13 5 -14 0 -19 -2 -12 -5z"/>
<path d="M2056 2522 c-3 -5 8 -22 24 -37 16 -15 26 -33 23 -38 -4 -6 0 -8 10
-4 11 4 17 1 17 -9 0 -8 -4 -12 -10 -9 -5 3 -10 1 -10 -5 0 -7 8 -9 21 -5 16
5 19 4 14 -5 -5 -7 -4 -11 1 -8 15 10 31 -16 23 -37 -6 -16 -8 -17 -8 -3 -1
22 -17 32 -27 17 -4 -7 -3 -9 3 -6 18 11 24 -36 7 -54 -13 -14 -13 -18 3 -30
16 -13 17 -12 4 4 -8 10 -9 17 -3 17 6 0 14 -5 17 -10 4 -6 11 -8 16 -5 5 4 9
-4 9 -17 0 -14 6 -33 14 -44 14 -18 15 -18 13 4 -1 12 -4 22 -8 22 -3 0 -4 12
-1 26 4 21 2 25 -8 19 -10 -6 -12 -4 -7 9 4 10 7 20 7 22 0 2 5 4 11 4 5 0 8
-4 5 -9 -3 -5 1 -30 9 -57 13 -44 13 -50 -3 -68 -9 -11 -11 -16 -4 -12 8 5 12
1 12 -11 0 -11 5 -24 11 -30 6 -6 9 -21 6 -34 -4 -23 -4 -23 -6 2 0 15 -8 32
-16 39 -8 7 -15 11 -15 9 0 -2 -4 -19 -9 -36 -6 -21 -6 -35 0 -39 5 -3 9 -2 8
3 -4 23 2 53 10 49 5 -3 9 -41 9 -83 1 -85 8 -143 21 -156 4 -4 8 14 7 40 0
26 2 87 6 135 5 63 3 91 -5 100 -11 12 -13 21 -8 46 1 4 6 0 11 -8 8 -13 10
-12 10 3 0 9 -4 17 -10 17 -5 0 -10 9 -10 19 0 11 -4 23 -10 26 -5 3 -10 13
-10 21 0 8 5 12 10 9 6 -3 10 -2 10 2 0 5 -13 17 -30 26 l-29 18 -10 -33 c-8
-29 -9 -30 -10 -8 -1 42 13 56 44 42 l27 -12 -22 27 c-12 16 -26 28 -30 28 -5
0 -18 10 -30 23 -20 22 -20 22 -1 22 11 0 23 5 27 12 5 7 2 9 -8 5 -9 -3 -21
0 -28 6 -10 9 -11 9 -6 0 8 -15 -12 -17 -33 -4 -12 8 -8 11 15 16 49 11 51 15
4 10 -45 -6 -48 7 -5 19 11 3 3 4 -18 1 -22 -2 -35 0 -32 6 4 5 2 9 -4 9 -5 0
-12 -4 -15 -8z"/>
<path d="M1417 2509 c7 -7 15 -10 18 -7 3 3 -2 9 -12 12 -14 6 -15 5 -6 -5z"/>
<path d="M1684 2505 c-24 -18 -7 -19 26 0 16 9 19 14 9 15 -8 0 -24 -7 -35
-15z"/>
<path d="M1861 2513 c-1 -6 -4 -20 -7 -30 -5 -17 -5 -17 6 0 6 10 9 23 6 30
-3 9 -5 9 -5 0z"/>
<path d="M2022 2506 c10 -7 14 -16 10 -20 -4 -4 -2 -7 3 -6 21 5 27 -1 15 -15
-9 -11 -8 -19 4 -37 16 -23 16 -23 10 11 -5 24 -4 32 4 27 23 -14 0 23 -23 38
-29 19 -47 21 -23 2z"/>
<path d="M1138 2503 c7 -3 16 -2 19 1 4 3 -2 6 -13 5 -11 0 -14 -3 -6 -6z"/>
<path d="M1760 2500 c-8 -5 -10 -10 -5 -11 6 0 1 -5 -10 -10 -18 -8 -18 -8 4
-6 14 1 25 9 27 20 3 20 3 20 -16 7z"/>
<path d="M1830 2500 c-9 -6 -10 -10 -3 -10 6 0 15 5 18 10 8 12 4 12 -15 0z"/>
<path d="M1074 2484 c-19 -15 -19 -15 1 -6 11 5 27 12 35 15 13 5 13 6 -1 6
-8 1 -24 -6 -35 -15z"/>
<path d="M1795 2490 c-3 -5 -1 -10 4 -10 6 0 11 5 11 10 0 6 -2 10 -4 10 -3 0
-8 -4 -11 -10z"/>
<path d="M1966 2484 c-8 -20 -4 -25 11 -16 7 4 9 13 4 21 -6 10 -10 9 -15 -5z"/>
<path d="M2003 2485 c0 -8 4 -15 9 -15 4 0 8 4 8 9 0 6 -4 12 -8 15 -5 3 -9
-1 -9 -9z"/>
<path d="M1901 2464 c-12 -27 -11 -28 4 -12 10 9 16 21 13 28 -2 7 -10 -1 -17
-16z"/>
<path d="M1668 2473 c7 -3 16 -2 19 1 4 3 -2 6 -13 5 -11 0 -14 -3 -6 -6z"/>
<path d="M1830 2450 c5 -16 5 -32 0 -35 -5 -3 -11 3 -14 12 -4 14 -4 14 -3 -2
2 -13 9 -19 20 -17 10 2 21 -6 27 -20 5 -13 9 -18 9 -12 1 13 -38 104 -44 104
-2 0 0 -13 5 -30z"/>
<path d="M1179 2453 c-13 -16 -12 -17 4 -4 9 7 17 15 17 17 0 8 -8 3 -21 -13z"/>
<path d="M1608 2463 c7 -3 16 -2 19 1 4 3 -2 6 -13 5 -11 0 -14 -3 -6 -6z"/>
<path d="M1706 2453 c-6 -14 -5 -15 5 -6 7 7 10 15 7 18 -3 3 -9 -2 -12 -12z"/>
<path d="M1790 2461 c0 -6 -6 -11 -14 -11 -7 0 -16 -9 -19 -20 -3 -11 -1 -18
3 -15 5 3 10 2 13 -2 2 -5 2 -2 1 4 -2 7 6 19 17 27 13 9 16 16 10 21 -6 3
-11 1 -11 -4z"/>
<path d="M1460 2440 c-9 -6 -10 -10 -3 -10 6 0 15 5 18 10 8 12 4 12 -15 0z"/>
<path d="M1935 2440 c3 -5 2 -10 -3 -10 -6 0 -13 -8 -16 -17 -6 -15 -5 -15 13
1 18 16 20 36 5 36 -3 0 -2 -4 1 -10z"/>
<path d="M1983 2437 c0 -7 13 -13 29 -14 28 -1 33 7 6 11 -7 1 -18 5 -24 8 -6
4 -11 2 -11 -5z"/>
<path d="M927 2429 c-9 -6 -15 -14 -12 -19 3 -4 -8 -20 -25 -33 -16 -14 -31
-35 -33 -45 -2 -11 -9 -27 -15 -35 -9 -10 -10 -17 -2 -22 10 -6 14 1 10 20 -1
6 2 7 6 3 4 -4 13 0 20 10 9 12 9 19 1 24 -6 4 3 14 21 25 18 11 29 22 26 26
-3 3 4 11 16 17 38 20 33 3 -9 -31 -23 -18 -39 -34 -36 -37 2 -3 -10 -26 -29
-51 -51 -72 -52 -79 -5 -36 24 22 34 28 21 14 -12 -14 -19 -29 -15 -34 5 -4 3
-5 -3 -2 -7 4 -11 -4 -11 -21 0 -33 -27 -190 -37 -217 -6 -14 -5 -16 2 -6 8
11 11 11 16 0 3 -8 4 -4 2 8 -2 13 -1 25 3 27 4 3 8 -9 9 -25 1 -16 -2 -29 -6
-29 -5 0 -9 -6 -9 -12 -1 -7 -3 -26 -6 -43 -2 -16 -2 -22 0 -12 2 9 9 17 14
17 6 0 8 -8 5 -17 -3 -10 -7 -36 -11 -58 -4 -31 -3 -37 7 -27 6 6 16 12 22 12
5 0 0 -8 -11 -17 -11 -10 -18 -24 -15 -31 3 -10 8 -8 18 5 12 16 13 17 14 1 0
-9 -8 -22 -17 -27 -10 -6 -13 -11 -7 -11 7 0 14 -9 17 -19 3 -14 1 -18 -9 -14
-20 8 -17 -43 6 -92 l20 -40 -3 197 c-1 108 -5 194 -9 191 -12 -7 -9 12 4 25
9 9 9 18 0 37 -7 15 -8 25 -2 25 6 0 10 5 10 11 0 5 -4 7 -10 4 -6 -4 -6 3 0
21 8 19 7 31 -2 42 -10 12 -10 14 0 8 9 -5 12 3 12 28 0 19 10 61 22 93 12 32
22 63 23 68 0 6 11 25 25 43 17 23 30 32 43 28 18 -4 18 -4 1 15 -9 10 -19 17
-22 14 -3 -3 -10 -1 -16 4 -7 6 -18 6 -29 0z"/>
<path d="M1140 2429 c0 -5 5 -7 10 -4 6 3 10 8 10 11 0 2 -4 4 -10 4 -5 0 -10
-5 -10 -11z"/>
<path d="M1870 2431 c0 -6 4 -13 10 -16 6 -3 7 1 4 9 -7 18 -14 21 -14 7z"/>
<path d="M2077 2403 c-7 -36 -2 -41 13 -13 8 14 8 26 2 32 -6 6 -11 -1 -15
-19z"/>
<path d="M1954 2380 c5 -55 16 -64 16 -12 0 22 -5 44 -10 47 -6 4 -9 -9 -6
-35z"/>
<path d="M2025 2390 c2 -11 16 -32 30 -47 l26 -28 -22 48 c-24 48 -41 62 -34
27z"/>
<path d="M1080 2390 c-9 -6 -10 -10 -3 -10 6 0 15 5 18 10 8 12 4 12 -15 0z"/>
<path d="M1434 2388 c-4 -7 -4 -10 1 -6 4 4 15 2 24 -5 14 -11 14 -10 2 6 -16
20 -18 21 -27 5z"/>
<path d="M1933 2365 c0 -8 4 -12 9 -9 5 3 6 10 3 15 -9 13 -12 11 -12 -6z"/>
<path d="M1050 2345 c-14 -15 -30 -23 -40 -20 -12 5 -12 4 -3 -6 9 -9 20 -5
48 20 20 17 32 31 27 31 -5 0 -19 -11 -32 -25z"/>
<path d="M2088 2364 c-3 -5 0 -25 8 -44 11 -30 12 -32 13 -10 0 31 -14 67 -21
54z"/>
<path d="M2028 2303 c5 -24 6 -25 12 -8 8 21 4 35 -9 35 -5 0 -6 -12 -3 -27z"/>
<path d="M2075 2281 c-3 -5 -1 -12 5 -16 5 -3 10 1 10 9 0 18 -6 21 -15 7z"/>
<path d="M2120 2283 c-3 -45 -5 -172 -2 -154 3 16 6 20 11 12 5 -7 6 14 4 46
-3 32 -5 68 -5 81 0 20 -7 33 -8 15z"/>
<path d="M2001 2264 c0 -11 3 -14 6 -6 3 7 2 16 -1 19 -3 4 -6 -2 -5 -13z"/>
<path d="M2146 2254 c-5 -13 -4 -14 7 -6 16 14 28 6 20 -14 -3 -8 0 -14 6 -14
12 0 14 11 5 34 -8 21 -30 20 -38 0z"/>
<path d="M2052 2247 c-7 -8 -7 -18 -2 -27 11 -16 11 -15 15 18 3 26 1 27 -13
9z"/>
<path d="M2080 2239 c0 -8 5 -21 10 -29 8 -12 9 -10 7 7 -4 26 -17 43 -17 22z"/>
<path d="M2033 2185 c0 -14 3 -27 7 -30 4 -3 8 7 8 20 0 14 -4 27 -8 30 -4 3
-7 -7 -7 -20z"/>
<path d="M2065 2199 c-4 -6 -5 -12 -2 -15 2 -3 7 2 10 11 7 17 1 20 -8 4z"/>
<path d="M2185 2200 c-3 -5 -1 -10 4 -10 6 0 11 5 11 10 0 6 -2 10 -4 10 -3 0
-8 -4 -11 -10z"/>
<path d="M816 2182 c-2 -4 -1 -14 4 -22 7 -11 9 -9 7 8 -1 24 -3 26 -11 14z"/>
<path d="M2091 2174 c0 -11 3 -14 6 -6 3 7 2 16 -1 19 -3 4 -6 -2 -5 -13z"/>
<path d="M2175 2160 c-10 -11 -14 -20 -9 -20 5 0 15 9 22 20 7 11 11 20 9 20
-2 0 -12 -9 -22 -20z"/>
<path d="M2052 2139 c-8 -12 -9 -18 -4 -15 6 3 12 0 15 -6 2 -7 4 -1 4 15 0
15 0 27 -1 27 -1 0 -7 -9 -14 -21z"/>
<path d="M2080 2135 c0 -8 2 -15 4 -15 2 0 6 7 10 15 3 8 1 15 -4 15 -6 0 -10
-7 -10 -15z"/>
<path d="M2077 2050 c-16 -144 -16 -155 -1 -85 8 39 13 88 12 110 -3 34 -4 30
-11 -25z"/>
<path d="M815 2089 c-4 -6 -5 -12 -2 -15 2 -3 7 2 10 11 7 17 1 20 -8 4z"/>
<path d="M2061 2084 c0 -11 3 -14 6 -6 3 7 2 16 -1 19 -3 4 -6 -2 -5 -13z"/>
<path d="M2126 2091 c-4 -7 -5 -15 -2 -18 9 -9 19 4 14 18 -4 11 -6 11 -12 0z"/>
<path d="M1159 2053 c-17 -20 -18 -23 -3 -10 11 9 23 15 26 12 3 -3 11 1 18
10 24 29 -15 17 -41 -12z"/>
<path d="M1982 2060 c0 -14 2 -19 5 -12 2 6 2 18 0 25 -3 6 -5 1 -5 -13z"/>
<path d="M2101 2064 c0 -11 3 -14 6 -6 3 7 2 16 -1 19 -3 4 -6 -2 -5 -13z"/>
<path d="M2876 2064 c-4 -10 -1 -14 6 -12 15 5 23 28 10 28 -5 0 -13 -7 -16
-16z"/>
<path d="M2025 2050 c-3 -5 -1 -10 4 -10 6 0 11 5 11 10 0 6 -2 10 -4 10 -3 0
-8 -4 -11 -10z"/>
<path d="M2061 2044 c0 -11 3 -14 6 -6 3 7 2 16 -1 19 -3 4 -6 -2 -5 -13z"/>
<path d="M2121 2044 c0 -11 3 -14 6 -6 3 7 2 16 -1 19 -3 4 -6 -2 -5 -13z"/>
<path d="M1165 2030 c-3 -5 -2 -10 4 -10 5 0 13 5 16 10 3 6 2 10 -4 10 -5 0
-13 -4 -16 -10z"/>
<path d="M1193 2021 c-9 -14 -9 -21 0 -30 7 -7 7 -11 1 -11 -6 0 -19 9 -29 20
-10 11 -22 20 -27 20 -5 0 3 -11 18 -25 15 -14 30 -25 35 -25 13 0 20 18 9 25
-8 5 -7 11 1 21 6 8 10 16 8 19 -3 2 -10 -4 -16 -14z"/>
<path d="M1938 2028 c6 -6 18 -8 28 -6 14 3 12 5 -9 10 -19 3 -25 2 -19 -4z"/>
<path d="M1995 2030 c-3 -5 -3 -16 2 -22 4 -7 8 -19 9 -26 2 -8 10 -22 18 -31
22 -24 20 -28 -13 -33 -24 -4 -31 0 -36 19 -11 44 -87 42 -92 -3 -2 -14 0 -13
7 4 7 18 16 23 36 20 55 -6 57 -64 3 -79 -14 -4 -17 -7 -8 -8 14 -1 16 -7 9
-36 -5 -20 -4 -33 1 -29 5 3 9 15 9 28 0 28 49 76 78 76 31 0 38 25 14 51 -11
11 -18 27 -16 34 3 7 0 16 -5 20 -6 3 -9 11 -6 16 4 5 4 9 1 9 -3 0 -8 -4 -11
-10z"/>
<path d="M2151 2024 c0 -11 3 -14 6 -6 3 7 2 16 -1 19 -3 4 -6 -2 -5 -13z"/>
<path d="M2192 2025 c0 -11 3 -29 8 -40 11 -25 11 1 0 35 -6 20 -8 21 -8 5z"/>
<path d="M2893 2033 c4 -3 1 -13 -6 -22 -11 -14 -10 -14 5 -2 16 12 16 31 1
31 -4 0 -3 -3 0 -7z"/>
<path d="M164 1979 c-46 -46 -47 -49 -34 -79 7 -17 10 -34 6 -37 -9 -10 65
-83 84 -83 8 0 47 33 85 72 l70 73 -66 -63 c-36 -34 -69 -59 -74 -55 -4 4 -5
2 -1 -4 5 -9 0 -13 -14 -13 -12 0 -19 4 -16 8 3 5 -8 22 -25 38 -16 15 -29 35
-28 44 3 29 -1 41 -11 35 -5 -3 -10 1 -10 10 0 9 5 13 10 10 6 -4 9 -1 8 6 -2
7 2 13 9 14 15 0 28 14 28 28 0 7 5 12 12 12 6 0 14 3 18 7 4 4 19 6 34 4 14
-2 18 -1 8 1 -9 2 -15 8 -13 12 3 4 -4 7 -15 7 -10 0 -40 -22 -65 -47z m12
-151 l29 -33 -32 29 c-18 17 -33 31 -33 33 0 8 8 1 36 -29z"/>
<path d="M283 2021 c10 -4 18 -10 17 -14 -1 -5 12 -23 29 -42 20 -23 31 -30
34 -21 6 16 -63 86 -83 85 -10 0 -9 -3 3 -8z m53 -43 l29 -33 -32 29 c-18 17
-33 31 -33 33 0 8 8 1 36 -29z"/>
<path d="M1895 2020 c-4 -6 -12 -7 -18 -4 -7 4 -9 3 -4 -1 4 -5 -7 -24 -25
-42 -17 -18 -30 -33 -27 -33 3 0 25 20 49 45 24 25 41 45 38 45 -4 0 -10 -5
-13 -10z"/>
<path d="M2038 2008 c-3 -15 -1 -32 3 -40 13 -21 18 -5 10 32 -7 34 -7 34 -13
8z"/>
<path d="M2840 2019 c0 -17 14 -40 26 -42 5 -1 8 -8 8 -15 -2 -10 1 -10 12 -1
15 13 19 34 5 24 -5 -3 -19 7 -30 21 -12 15 -21 21 -21 13z"/>
<path d="M1630 2005 c-10 -12 -10 -18 0 -30 7 -8 18 -15 24 -14 7 0 6 2 -1 6
-18 7 -16 33 3 33 8 0 12 5 9 10 -9 14 -21 12 -35 -5z"/>
<path d="M2132 1995 c0 -16 2 -22 5 -12 2 9 2 23 0 30 -3 6 -5 -1 -5 -18z"/>
<path d="M1960 2002 c0 -5 7 -9 15 -9 8 0 12 4 9 9 -3 4 -9 8 -15 8 -5 0 -9
-4 -9 -8z"/>
<path d="M2815 2001 c-3 -5 1 -15 8 -23 7 -7 19 -22 25 -33 12 -20 12 -20 10
0 -2 11 -11 26 -21 33 -9 7 -15 18 -12 23 4 5 4 9 1 9 -3 0 -7 -4 -11 -9z"/>
<path d="M1125 1989 c-10 -15 3 -25 16 -12 7 7 7 13 1 17 -6 3 -14 1 -17 -5z"/>
<path d="M1570 1990 c-8 -5 -11 -12 -7 -16 4 -4 15 0 24 9 18 18 8 23 -17 7z"/>
<path d="M1105 1960 c10 -11 20 -18 23 -15 7 6 -18 35 -31 35 -5 0 -2 -9 8
-20z"/>
<path d="M202 1958 c-7 -7 -12 -16 -12 -22 0 -5 6 -2 13 9 11 13 21 16 43 11
21 -5 25 -4 14 4 -20 13 -43 13 -58 -2z"/>
<path d="M1153 1964 c4 -4 -7 -24 -24 -45 -16 -20 -25 -40 -20 -43 5 -4 12 -2
16 4 3 5 3 10 -2 10 -4 0 -1 5 8 10 21 12 119 -16 135 -39 18 -23 25 -10 10
19 -7 15 -19 24 -30 22 -10 -2 -24 2 -32 9 -8 6 -23 9 -34 6 -25 -7 -34 7 -15
23 16 13 11 30 -7 30 -6 0 -8 -3 -5 -6z"/>
<path d="M1496 1944 c-26 -38 -17 -58 14 -33 15 11 18 17 8 13 -25 -9 -22 12
4 30 17 12 19 16 6 16 -8 0 -23 -12 -32 -26z"/>
<path d="M2779 1968 c-6 -21 -5 -37 2 -32 5 3 7 9 4 14 -3 5 3 11 12 13 17 4
17 5 1 6 -10 0 -18 0 -19 -1z"/>
<path d="M1057 1953 c-10 -9 -9 -33 1 -33 4 0 8 9 8 20 0 23 0 22 -9 13z"/>
<path d="M1670 1953 c0 -4 17 -16 36 -26 25 -12 35 -14 32 -5 -3 7 -9 13 -14
13 -5 1 -19 6 -31 13 -13 7 -23 9 -23 5z"/>
<path d="M2141 1940 c0 -14 4 -32 9 -40 9 -13 10 -13 9 0 -1 8 -5 26 -9 40
l-8 25 -1 -25z"/>
<path d="M1080 1939 c0 -5 5 -7 10 -4 6 3 10 8 10 11 0 2 -4 4 -10 4 -5 0 -10
-5 -10 -11z"/>
<path d="M1205 1940 c3 -5 8 -10 11 -10 2 0 4 5 4 10 0 6 -5 10 -11 10 -5 0
-7 -4 -4 -10z"/>
<path d="M1598 1924 c2 -13 10 -24 17 -24 16 0 8 37 -9 43 -9 4 -11 -2 -8 -19z"/>
<path d="M2810 1946 c0 -2 7 -7 16 -10 8 -3 12 -2 9 4 -6 10 -25 14 -25 6z"/>
<path d="M271 1924 c0 -11 3 -14 6 -6 3 7 2 16 -1 19 -3 4 -6 -2 -5 -13z"/>
<path d="M1647 1933 c-15 -14 -6 -23 24 -23 16 0 28 4 25 9 -3 5 -16 7 -28 3
-14 -3 -19 -2 -14 6 8 13 3 16 -7 5z"/>
<path d="M1755 1930 c-5 -9 5 -15 64 -35 9 -4 11 0 7 11 -3 8 -6 17 -6 20 0 2
-15 1 -32 -2 -25 -4 -29 -3 -18 5 9 7 10 11 3 11 -6 0 -15 -5 -18 -10z"/>
<path d="M2081 1892 c1 -28 6 -49 10 -46 8 4 1 84 -7 93 -3 3 -4 -18 -3 -47z"/>
<path d="M2176 1889 c-4 -31 -6 -65 -3 -75 3 -11 6 4 7 31 2 41 3 45 10 25 5
-15 8 -18 9 -8 1 9 4 25 7 35 5 14 4 15 -4 4 -8 -11 -11 -8 -14 15 -3 22 -6
15 -12 -27z"/>
<path d="M2746 1931 c-3 -5 1 -11 9 -14 9 -4 12 -1 8 9 -6 16 -10 17 -17 5z"/>
<path d="M1100 1920 c0 -5 -6 -10 -14 -10 -14 0 -30 -29 -21 -38 3 -3 5 0 5 6
0 7 6 12 13 12 7 0 18 9 25 20 7 12 8 20 2 20 -5 0 -10 -4 -10 -10z"/>
<path d="M2223 1908 c1 -15 6 -23 11 -18 4 4 4 16 -2 26 -9 16 -10 14 -9 -8z"/>
<path d="M285 1900 c-10 -11 -20 -18 -24 -16 -3 2 -15 0 -26 -5 -17 -6 -17 -8
-3 -8 12 -1 15 -6 11 -18 -4 -10 8 -1 26 19 17 20 42 39 54 41 21 4 21 4 1 6
-11 0 -29 -8 -39 -19z"/>
<path d="M2822 1908 c-7 -7 -18 -13 -25 -13 -7 -1 -11 -6 -10 -12 1 -6 -4 -17
-13 -24 -12 -10 -19 -8 -39 11 -18 17 -28 21 -36 13 -8 -8 -7 -13 2 -18 8 -5
10 -4 5 3 -11 19 9 14 27 -6 10 -10 14 -22 10 -25 -3 -4 -2 -7 3 -7 6 0 30 20
54 45 24 25 42 45 39 45 -3 0 -11 -6 -17 -12z"/>
<path d="M190 1901 c0 -6 4 -13 10 -16 6 -3 7 1 4 9 -7 18 -14 21 -14 7z"/>
<path d="M1035 1900 c-4 -6 -12 -7 -18 -4 -7 4 1 -7 17 -24 24 -26 31 -29 47
-19 11 7 19 16 19 21 0 5 -9 1 -19 -8 -22 -20 -36 -7 -26 24 7 21 -9 28 -20
10z"/>
<path d="M1841 1889 c-1 -17 10 -36 37 -60 l37 -34 -32 35 c-17 19 -33 46 -36
60 l-4 25 -2 -26z"/>
<path d="M1880 1901 c0 -6 4 -13 10 -16 6 -3 7 1 4 9 -7 18 -14 21 -14 7z"/>
<path d="M1994 1856 c-27 -24 -47 -46 -44 -49 3 -3 27 17 55 44 62 61 56 64
-11 5z"/>
<path d="M977 1883 c-14 -13 -7 -31 11 -28 9 2 21 4 26 4 10 1 -13 31 -24 31
-3 0 -10 -3 -13 -7z"/>
<path d="M1566 1881 c-3 -4 -18 -11 -33 -14 -45 -10 -59 -23 -45 -40 7 -8 10
-22 6 -30 -3 -9 -3 -21 1 -28 13 -20 24 12 14 39 -9 23 -6 37 9 37 10 1 82 37
82 41 0 8 -29 4 -34 -5z"/>
<path d="M2111 1874 c0 -11 3 -14 6 -6 3 7 2 16 -1 19 -3 4 -6 -2 -5 -13z"/>
<path d="M1150 1864 c0 -9 68 -34 91 -34 12 0 20 2 18 4 -7 7 -109 35 -109 30z"/>
<path d="M1820 1863 c0 -6 8 -17 18 -24 16 -13 16 -13 2 6 -8 11 -16 22 -17
24 -2 2 -3 0 -3 -6z"/>
<path d="M2212 1845 c0 -16 2 -22 5 -12 2 9 2 23 0 30 -3 6 -5 -1 -5 -18z"/>
<path d="M2151 1844 c0 -11 3 -14 6 -6 3 7 2 16 -1 19 -3 4 -6 -2 -5 -13z"/>
<path d="M2241 1834 c0 -11 3 -14 6 -6 3 7 2 16 -1 19 -3 4 -6 -2 -5 -13z"/>
<path d="M2647 1832 c-10 -10 -17 -23 -17 -28 0 -4 7 2 16 14 17 25 46 29 63
8 9 -11 7 -15 -11 -21 -13 -4 -27 -7 -31 -6 -5 1 -5 -4 -2 -10 5 -8 10 -8 18
0 17 17 31 13 17 -4 -15 -18 -41 -19 -60 -2 -8 6 -6 2 4 -10 20 -25 37 -21 70
16 18 20 18 22 1 41 -23 25 -47 26 -68 2z"/>
<path d="M2105 1809 c-4 -6 -4 -13 -1 -16 3 -4 6 -1 6 6 0 7 5 9 12 5 7 -4 8
-3 4 4 -9 15 -13 15 -21 1z"/>
<path d="M1261 1800 c0 -8 4 -24 9 -35 9 -20 9 -20 9 0 0 11 -4 27 -9 35 -9
13 -10 13 -9 0z"/>
<path d="M1570 1794 c-72 -49 -63 -84 23 -87 15 -1 27 -4 27 -8 0 -4 9 -5 20
-2 26 7 19 15 -17 18 -78 7 -117 27 -75 39 59 17 183 28 252 23 94 -7 109 7
18 16 -189 19 -222 19 -248 1z m30 -14 c0 -5 -2 -10 -4 -10 -3 0 -8 5 -11 10
-3 6 -1 10 4 10 6 0 11 -4 11 -10z"/>
<path d="M2156 1793 c4 -15 -30 -45 -41 -36 -4 5 -5 2 -1 -5 6 -11 13 -10 32
3 13 8 24 13 24 10 0 -4 14 2 31 12 30 18 30 18 49 -7 11 -14 20 -32 19 -40 0
-12 -3 -11 -14 4 -8 10 -20 16 -28 13 -12 -4 -13 -15 -6 -53 16 -82 -20 -178
-74 -197 -6 -2 -8 -8 -4 -13 4 -4 17 -2 29 5 17 10 19 10 14 -1 -3 -7 -9 -21
-12 -30 -4 -10 -12 -18 -19 -18 -7 0 -15 -9 -18 -20 -3 -11 -11 -20 -19 -20
-24 0 -36 34 -28 78 4 23 3 42 -1 42 -5 0 -9 -8 -9 -19 0 -10 -3 -38 -6 -63
-6 -43 -5 -46 20 -52 40 -10 58 5 99 88 49 98 72 166 81 237 9 74 -7 94 -70
85 -23 -3 -44 -2 -47 2 -2 4 -3 2 -1 -5z"/>
<path d="M999 1783 c-13 -16 -12 -17 4 -4 9 7 17 15 17 17 0 8 -8 3 -21 -13z"/>
<path d="M2081 1773 c-1 -12 4 -25 9 -28 12 -7 12 2 0 30 -8 19 -9 19 -9 -2z"/>
<path d="M1115 1770 c-16 -4 -55 -8 -85 -9 -30 -1 -66 -9 -80 -17 -24 -15 -24
-15 15 -8 42 8 248 6 278 -2 32 -10 17 17 -18 32 -37 15 -62 16 -110 4z"/>
<path d="M1378 1763 c6 -2 18 -2 25 0 6 3 1 5 -13 5 -14 0 -19 -2 -12 -5z"/>
<path d="M2095 1688 c0 -39 14 -54 17 -18 0 11 1 26 2 33 1 6 5 15 11 19 5 4
1 6 -10 6 -16 -2 -20 -9 -20 -40z"/>
<path d="M2183 1718 c-21 -28 -24 -38 -10 -38 8 0 17 10 20 22 7 27 3 33 -10
16z"/>
<path d="M1225 1713 c-38 -10 -68 -24 -62 -29 7 -8 85 14 92 26 6 11 2 11 -30
3z"/>
<path d="M1333 1699 c-2 -23 3 -25 10 -4 4 8 3 16 -1 19 -4 3 -9 -4 -9 -15z"/>
<path d="M1690 1710 c-9 -6 -10 -10 -3 -10 6 0 15 5 18 10 8 12 4 12 -15 0z"/>
<path d="M1405 1700 c-3 -5 -1 -10 4 -10 6 0 11 5 11 10 0 6 -2 10 -4 10 -3 0
-8 -4 -11 -10z"/>
<path d="M1128 1683 c7 -3 16 -2 19 1 4 3 -2 6 -13 5 -11 0 -14 -3 -6 -6z"/>
<path d="M2122 1640 c-15 -24 -16 -54 -1 -45 6 4 8 13 5 20 -2 7 2 16 10 19
37 14 38 6 11 -72 -21 -59 1 -50 32 13 l23 49 -22 18 c-29 23 -42 23 -58 -2z"/>
<path d="M1458 1645 c-4 -4 10 -25 30 -47 53 -57 58 -69 36 -85 -21 -15 -58
-18 -49 -3 11 18 -26 10 -58 -12 -30 -21 -31 -21 -80 -4 -44 16 -52 16 -61 4
-6 -8 -18 -13 -26 -11 -13 4 -13 3 0 -6 8 -6 35 -11 60 -11 25 0 54 -1 65 -1
51 -1 146 19 163 34 18 16 20 16 43 -6 13 -13 30 -32 36 -43 10 -15 10 -13 0
13 -6 18 -31 52 -54 77 -24 25 -43 50 -43 55 0 6 -5 11 -11 11 -6 0 -18 9 -28
21 -9 11 -19 17 -23 14z"/>
<path d="M1274 1625 c2 -7 -9 -27 -25 -44 -16 -18 -29 -36 -29 -42 0 -5 -5 -9
-11 -9 -5 0 -8 -4 -5 -9 3 -5 -5 -28 -18 -52 -23 -42 -47 -182 -26 -149 5 8
10 31 10 51 0 39 47 142 61 133 5 -3 9 4 9 15 0 11 5 23 10 26 9 6 50 78 50
88 0 2 -7 4 -15 4 -9 0 -14 -6 -11 -12z"/>
<path d="M1435 1590 c3 -5 8 -10 11 -10 2 0 4 5 4 10 0 6 -5 10 -11 10 -5 0
-7 -4 -4 -10z"/>
<path d="M2096 1554 c-4 -10 -1 -21 6 -25 16 -11 22 5 10 27 -8 15 -10 15 -16
-2z"/>
<path d="M1420 1549 c0 -5 5 -7 10 -4 6 3 10 8 10 11 0 2 -4 4 -10 4 -5 0 -10
-5 -10 -11z"/>
<path d="M1617 1423 c-10 -17 10 -93 24 -93 14 0 11 11 -8 33 -17 19 -17 20 0
14 21 -8 22 0 2 20 -8 8 -13 19 -10 24 4 5 4 9 1 9 -3 0 -7 -3 -9 -7z"/>
<path d="M2037 1337 c-9 -29 -19 -60 -21 -69 -8 -32 -60 -113 -100 -155 -49
-54 -181 -133 -268 -162 -52 -17 -85 -22 -142 -19 -41 2 -72 0 -70 -4 9 -15
98 -20 152 -9 70 15 71 15 105 29 16 7 33 12 38 12 5 0 9 5 9 10 0 6 5 10 10
10 19 0 113 66 153 106 l38 38 22 -22 c18 -19 20 -25 9 -42 -20 -32 -6 -23 19
12 13 17 18 29 12 25 -5 -3 -20 4 -32 17 -13 14 -18 27 -13 30 19 11 71 113
87 170 21 73 15 90 -8 23z"/>
<path d="M1395 1330 c-3 -5 -2 -10 4 -10 5 0 13 5 16 10 3 6 2 10 -4 10 -5 0
-13 -4 -16 -10z"/>
<path d="M1275 1323 c-43 -5 -115 -45 -115 -63 0 -26 -24 -68 -45 -80 -18 -10
-18 -10 -1 -5 14 4 33 -7 65 -37 l46 -43 -37 40 -37 40 15 44 c16 47 40 72 61
64 8 -3 11 0 8 8 -4 10 7 15 40 16 42 2 44 1 30 -13 -12 -12 -19 -13 -29 -5
-10 9 -15 8 -19 -3 -9 -22 33 -17 60 7 16 14 26 16 38 9 11 -6 33 -6 59 0 44
10 106 4 186 -17 54 -14 66 -6 23 15 -18 9 -72 15 -154 16 -70 1 -135 4 -145
6 -11 3 -32 3 -49 1z"/>
<path d="M1305 1259 c-37 -14 -55 -28 -55 -43 0 -8 2 -8 8 0 21 32 126 45 247
31 49 -6 55 -5 35 4 -35 16 -199 21 -235 8z"/>
<path d="M1570 1250 c0 -6 7 -10 15 -10 8 0 15 2 15 4 0 2 -7 6 -15 10 -8 3
-15 1 -15 -4z"/>
<path d="M1667 1239 c6 -6 9 -18 6 -25 -4 -10 0 -12 11 -8 16 6 16 8 0 25 -9
11 -20 19 -23 19 -3 0 0 -5 6 -11z"/>
<path d="M340 1232 c0 -5 -30 -39 -67 -76 -42 -42 -63 -70 -55 -73 6 -3 9 -10
6 -15 -4 -7 -2 -8 5 -4 6 4 9 12 6 17 -4 5 -1 9 5 9 7 0 10 7 6 15 -8 21 4 19
31 -7 19 -18 25 -19 36 -8 10 10 9 11 -1 5 -8 -4 -21 0 -33 11 -22 20 -27 43
-5 25 11 -9 16 -9 21 0 4 6 1 16 -6 21 -11 7 -9 9 7 5 15 -3 20 1 20 17 -1 13
8 25 22 31 24 11 28 20 12 30 -5 3 -10 2 -10 -3z"/>
<path d="M2030 1220 c0 -5 5 -10 10 -10 6 0 10 5 10 10 0 6 -4 10 -10 10 -5 0
-10 -4 -10 -10z"/>
<path d="M1386 1197 c3 -10 9 -15 12 -12 3 3 0 11 -7 18 -10 9 -11 8 -5 -6z"/>
<path d="M346 1175 c-3 -8 -3 -22 0 -30 5 -11 1 -14 -12 -9 -14 4 -16 3 -5 -4
11 -8 11 -10 0 -15 -9 -3 -10 -6 -2 -6 16 -1 27 19 29 52 2 30 -1 34 -10 12z"/>
<path d="M2739 1164 c-13 -14 -23 -27 -21 -30 1 -2 0 -3 -2 -1 -3 1 -16 -9
-29 -22 -37 -34 -27 -83 26 -138 23 -24 46 -43 52 -43 6 0 41 31 79 69 50 50
64 71 55 76 -8 5 -11 4 -6 0 12 -14 -103 -124 -122 -118 -9 3 -30 19 -47 35
-17 15 -33 25 -37 22 -4 -4 -7 8 -7 26 0 26 10 43 49 81 26 27 43 49 37 49 -6
0 -4 5 4 10 8 5 10 10 4 10 -6 0 -21 -12 -35 -26z m21 2 c0 -2 -8 -10 -17 -17
-16 -13 -17 -12 -4 4 13 16 21 21 21 13z m-67 -70 c-10 -13 -20 -22 -22 -20
-4 4 29 44 36 44 2 0 -4 -11 -14 -24z m77 -149 c13 -5 13 -6 -1 -6 -8 -1 -31
16 -50 37 l-34 37 35 -31 c19 -17 42 -34 50 -37z"/>
<path d="M1034 1159 c-11 -12 -26 -18 -38 -15 -15 4 -13 -2 11 -26 29 -29 33
-30 47 -15 25 24 61 8 61 -28 0 -38 -27 -55 -57 -36 -21 13 -22 13 -9 -2 15
-18 61 -23 61 -7 0 6 7 10 15 10 8 0 15 5 15 10 0 6 11 10 24 10 14 0 27 4 30
9 3 5 -9 7 -27 6 -30 -3 -35 0 -47 31 -8 19 -16 34 -19 34 -3 0 -20 -9 -38
-20 -29 -17 -32 -18 -36 -2 -2 9 5 27 16 40 11 12 18 22 15 22 -3 0 -13 -9
-24 -21z"/>
<path d="M2850 1135 c24 -24 47 -42 51 -40 4 3 10 -1 12 -7 3 -7 6 -8 6 -3 1
15 -75 88 -95 91 -10 2 0 -15 26 -41z m20 0 c19 -19 32 -35 29 -35 -3 0 -20
16 -39 35 -19 19 -32 35 -29 35 3 0 20 -16 39 -35z"/>
<path d="M1080 1160 c8 -5 24 -10 34 -10 11 0 29 -8 40 -17 l21 -17 -20 21
c-11 11 -36 23 -55 27 -25 4 -31 3 -20 -4z"/>
<path d="M1226 1135 c-3 -8 -1 -15 4 -15 6 0 10 7 10 15 0 8 -2 15 -4 15 -2 0
-6 -7 -10 -15z"/>
<path d="M1975 1140 c-3 -5 -1 -10 4 -10 6 0 11 5 11 10 0 6 -2 10 -4 10 -3 0
-8 -4 -11 -10z"/>
<path d="M1317 1133 c-4 -3 -7 -11 -7 -17 0 -6 5 -5 12 2 6 6 9 14 7 17 -3 3
-9 2 -12 -2z"/>
<path d="M1423 1111 c0 -11 5 -17 9 -15 11 7 10 34 -1 34 -6 0 -9 -9 -8 -19z"/>
<path d="M2010 1120 l-25 -8 28 -1 c15 -1 27 4 27 9 0 6 -1 10 -2 9 -2 -1 -14
-5 -28 -9z"/>
<path d="M2742 1108 c-17 -17 -15 -53 6 -69 15 -13 16 -12 4 3 -38 48 22 94
61 46 l19 -23 -14 25 c-17 28 -56 38 -76 18z"/>
<path d="M2050 1106 c0 -8 71 -48 76 -43 3 2 -11 14 -31 26 -36 21 -45 24 -45
17z"/>
<path d="M1260 1086 c0 -9 5 -16 10 -16 6 0 10 4 10 9 0 6 -4 13 -10 16 -5 3
-10 -1 -10 -9z"/>
<path d="M1353 1090 c-28 -11 -29 -16 -3 -16 11 0 22 6 24 13 3 7 4 13 3 12
-1 0 -12 -4 -24 -9z"/>
<path d="M1945 1080 c-4 -6 -10 -8 -14 -6 -4 3 -8 -1 -8 -9 0 -8 4 -12 8 -9 4
2 9 0 11 -6 2 -6 9 -1 15 9 7 12 9 23 3 26 -5 3 -11 1 -15 -5z"/>
<path d="M170 1055 c-13 -14 -22 -26 -19 -27 2 -2 15 -13 30 -25 l25 -23 43
44 c25 26 37 44 28 42 -22 -3 -58 -37 -51 -47 7 -12 -3 -11 -27 2 -11 5 -17
14 -14 20 4 5 10 7 15 4 9 -5 8 21 -1 30 -3 3 -16 -6 -29 -20z m17 -2 c-16
-16 -15 -19 6 -43 l22 -25 -27 24 c-26 23 -27 26 -11 43 9 10 19 18 22 18 3 0
-2 -8 -12 -17z"/>
<path d="M970 1072 c0 -5 7 -9 15 -9 8 0 12 4 9 9 -3 4 -9 8 -15 8 -5 0 -9 -4
-9 -8z"/>
<path d="M1187 1049 l-29 -26 25 -7 c14 -3 33 -9 44 -13 16 -6 16 -5 5 10 -8
8 -20 13 -28 10 -19 -7 -18 6 3 29 26 29 11 27 -20 -3z"/>
<path d="M2835 1060 c-4 -6 -11 -8 -16 -4 -5 3 -8 0 -7 -6 2 -7 -5 -14 -15
-15 -21 -4 -36 -15 -20 -15 6 0 9 -10 8 -22 -1 -13 0 -16 2 -7 6 22 53 66 78
72 18 4 18 5 -2 6 -12 0 -25 -4 -28 -9z"/>
<path d="M1500 1050 c0 -5 5 -10 11 -10 5 0 7 5 4 10 -3 6 -8 10 -11 10 -2 0
-4 -4 -4 -10z"/>
<path d="M1356 1035 c4 -8 10 -12 15 -9 11 6 2 24 -11 24 -5 0 -7 -7 -4 -15z"/>
<path d="M2170 1030 c33 -26 52 -25 21 0 -13 11 -28 20 -35 20 -6 0 0 -9 14
-20z"/>
<path d="M971 1030 c-1 -22 84 -104 101 -97 10 4 9 6 -2 6 -17 1 -84 67 -93
91 -5 13 -6 13 -6 0z"/>
<path d="M1885 1020 c21 -24 26 -25 19 -6 -3 8 -13 17 -22 21 -13 5 -13 2 3
-15z"/>
<path d="M1910 1029 c0 -5 5 -7 10 -4 6 3 10 8 10 11 0 2 -4 4 -10 4 -5 0 -10
-5 -10 -11z"/>
<path d="M1869 1007 c6 -8 9 -16 6 -19 -3 -2 2 -5 10 -5 13 0 13 3 -2 19 -19
21 -31 25 -14 5z"/>
<path d="M107 992 c-21 -23 -22 -49 -3 -68 20 -19 26 -18 58 13 l28 27 -22 23
c-26 28 -40 29 -61 5z m50 -4 c13 -23 11 -36 -8 -54 -15 -14 -21 -14 -34 -4
-18 15 -19 42 -3 58 16 16 35 15 45 0z"/>
<path d="M120 946 c7 -7 13 -7 20 0 6 6 3 10 -10 10 -13 0 -16 -4 -10 -10z"/>
<path d="M817 991 c-45 -29 -45 -35 1 -12 23 12 42 24 42 26 0 9 -14 4 -43
-14z"/>
<path d="M1010 1006 c0 -2 8 -10 18 -17 15 -13 16 -12 3 4 -13 16 -21 21 -21
13z"/>
<path d="M1080 984 c0 -21 -4 -25 -17 -19 -14 5 -15 3 -6 -6 6 -6 16 -9 21 -5
13 8 22 56 11 56 -5 0 -9 -12 -9 -26z"/>
<path d="M2227 999 c7 -7 15 -10 18 -7 3 3 -2 9 -12 12 -14 6 -15 5 -6 -5z"/>
<path d="M1115 980 c-3 -5 -1 -10 4 -10 6 0 11 5 11 10 0 6 -2 10 -4 10 -3 0
-8 -4 -11 -10z"/>
<path d="M1796 959 c-12 -24 -12 -28 -2 -19 11 8 16 8 23 -2 6 -10 13 -8 29 9
17 17 19 23 8 27 -8 3 -14 -1 -14 -9 0 -8 -7 -15 -15 -15 -18 0 -20 26 -2 33
8 4 8 6 0 6 -6 1 -18 -13 -27 -30z"/>
<path d="M1292 952 c18 -16 53 -42 78 -59 48 -32 179 -97 185 -91 2 2 -34 22
-79 46 -45 24 -109 63 -141 88 -66 49 -94 59 -43 16z"/>
<path d="M2270 966 c0 -2 7 -7 16 -10 8 -3 12 -2 9 4 -6 10 -25 14 -25 6z"/>
<path d="M1380 946 c0 -2 9 -6 20 -9 11 -3 18 -1 14 4 -5 9 -34 13 -34 5z"/>
<path d="M1849 933 c-13 -16 -12 -17 4 -4 16 13 21 21 13 21 -2 0 -10 -8 -17
-17z"/>
<path d="M1199 888 c24 -32 45 -58 48 -58 7 0 -59 89 -76 103 -8 7 5 -14 28
-45z"/>
<path d="M2330 921 c0 -5 9 -12 20 -16 10 -3 32 -24 48 -45 16 -22 32 -37 35
-33 4 3 7 0 7 -8 0 -9 8 -24 18 -35 10 -11 24 -35 31 -54 8 -19 20 -53 28 -75
9 -24 16 -84 18 -150 2 -71 9 -126 20 -155 9 -25 17 -49 19 -55 2 -5 6 -17 9
-25 21 -51 38 -114 33 -126 -3 -8 -2 -14 3 -14 4 0 8 -6 9 -12 0 -7 6 -32 12
-56 6 -24 8 -47 5 -53 -4 -5 -1 -9 4 -9 14 0 14 8 -1 87 -7 39 -8 67 -2 72 14
13 54 -6 54 -25 0 -16 -2 -15 -21 1 -20 19 -20 19 -10 -7 5 -14 7 -30 3 -34
-4 -5 5 2 20 15 23 20 25 27 16 39 -17 20 -51 31 -63 22 -7 -6 -25 35 -52 113
-37 109 -42 135 -46 242 -4 93 -10 131 -27 170 -31 72 -81 145 -134 193 -47
43 -56 49 -56 33z"/>
<path d="M1679 803 c-13 -16 -12 -17 4 -4 16 13 21 21 13 21 -2 0 -10 -8 -17
-17z"/>
<path d="M910 740 c0 -6 8 -27 19 -48 18 -37 54 -198 66 -302 8 -68 -7 -154
-36 -212 -22 -44 -36 -178 -18 -178 12 0 23 66 13 82 -4 7 2 5 13 -4 18 -17
55 -27 40 -11 -4 3 1 16 10 27 13 15 10 14 -10 -3 -31 -28 -37 -18 -7 14 18
20 19 23 5 35 -8 7 -22 9 -32 5 -16 -6 -15 -8 5 -16 13 -5 20 -13 17 -19 -10
-16 -23 -12 -35 10 -9 17 -6 23 18 37 16 10 27 24 24 31 -11 35 68 54 89 21
12 -19 11 -25 -6 -39 -21 -17 -38 -2 -30 28 5 22 4 24 -9 13 -8 -7 -21 -9 -28
-5 -7 4 0 -7 16 -24 17 -18 35 -32 40 -32 6 0 26 18 44 41 35 41 34 57 -6 83
-11 6 -5 18 25 50 l38 41 -40 -35 c-22 -19 -42 -37 -45 -41 -9 -9 -77 -59 -81
-59 -2 0 -2 44 -1 99 3 65 -1 118 -11 157 -8 33 -18 82 -22 109 -9 63 -65 188
-65 145z m215 -490 c15 -16 15 -22 5 -35 -7 -8 -17 -15 -23 -15 -7 0 -7 4 1
12 16 16 15 33 -1 20 -18 -15 -51 10 -35 26 17 17 32 15 53 -8z"/>
<path d="M1085 250 c-3 -5 -1 -10 4 -10 6 0 11 5 11 10 0 6 -2 10 -4 10 -3 0
-8 -4 -11 -10z"/>
<path d="M2314 716 c-24 -26 -43 -74 -84 -211 -38 -128 -43 -155 -53 -323 -7
-100 -9 -182 -5 -182 12 0 18 35 20 109 2 69 3 74 32 95 17 13 66 40 108 62
43 21 78 43 78 47 0 5 -48 -17 -107 -47 -58 -31 -108 -56 -110 -56 -5 0 7 99
21 162 27 121 66 253 90 303 26 52 28 61 10 41z"/>
<path d="M2849 374 c-13 -14 -19 -24 -12 -22 6 2 11 -1 10 -7 0 -5 -7 -9 -16
-7 -9 1 -33 -16 -55 -38 -21 -22 -35 -40 -30 -40 5 0 -2 -6 -16 -13 -14 -7
-25 -19 -26 -27 -1 -10 1 -11 3 -2 4 10 8 10 19 1 10 -8 14 -8 14 0 0 6 -6 11
-12 12 -7 0 -4 4 7 9 13 5 26 3 38 -8 17 -15 15 -27 -6 -27 -7 0 -13 -6 -13
-12 -3 -25 -4 -25 -21 -12 -16 12 -17 12 -6 -2 7 -9 10 -19 6 -22 -3 -4 -4 -7
-2 -7 3 0 25 21 49 46 25 26 40 44 33 40 -6 -3 -14 -2 -18 4 -4 6 -10 8 -15 5
-4 -3 -13 2 -20 9 -9 12 -7 17 7 25 15 7 22 5 31 -10 14 -21 37 -25 48 -7 5 7
3 8 -5 4 -7 -5 -21 0 -32 10 -21 19 -27 43 -6 25 19 -15 30 -1 14 17 -10 13
-9 15 6 9 10 -4 21 -7 23 -7 3 0 2 -6 -2 -12 -4 -8 -3 -10 2 -5 5 5 9 14 9 20
0 7 6 12 14 12 8 0 16 7 18 15 4 12 2 12 -5 2 -7 -10 -11 -10 -21 2 -10 12 -8
16 8 21 12 3 21 11 21 16 0 16 -16 10 -41 -17z"/>
<path d="M1175 339 c-11 -17 1 -21 15 -4 8 9 8 15 2 15 -6 0 -14 -5 -17 -11z"/>
<path d="M166 291 c-27 -28 -46 -55 -43 -63 4 -9 6 -7 6 5 1 10 5 16 9 13 5
-3 22 9 38 25 16 17 38 35 49 39 20 9 20 9 0 10 -20 1 -20 1 0 10 14 6 15 9 5
9 -9 1 -37 -21 -64 -48z m44 26 c0 -2 -17 -19 -37 -38 l-38 -34 34 38 c33 34
41 42 41 34z"/>
<path d="M1918 333 c7 -3 16 -2 19 1 4 3 -2 6 -13 5 -11 0 -14 -3 -6 -6z"/>
<path d="M265 318 c11 -6 36 -26 56 -45 20 -19 39 -31 42 -25 10 15 -60 75
-90 78 -25 3 -26 2 -8 -8z m65 -33 c19 -19 32 -35 29 -35 -3 0 -20 16 -39 35
-19 19 -32 35 -29 35 3 0 20 -16 39 -35z"/>
<path d="M2025 290 c21 -22 41 -40 44 -40 3 0 -13 18 -34 40 -21 22 -41 40
-44 40 -3 0 13 -18 34 -40z"/>
<path d="M1156 305 c4 -9 16 -21 28 -27 19 -10 19 -9 -3 16 -28 30 -33 32 -25
11z"/>
<path d="M1190 311 c0 -6 4 -13 10 -16 6 -3 7 1 4 9 -7 18 -14 21 -14 7z"/>
<path d="M1875 278 l-40 -43 40 36 c22 20 47 39 55 42 13 5 13 6 0 6 -9 1 -34
-18 -55 -41z"/>
<path d="M2874 312 c3 -5 0 -12 -6 -15 -7 -2 -10 -7 -7 -11 3 -4 12 0 18 8 9
11 9 16 0 22 -7 4 -9 3 -5 -4z"/>
<path d="M1844 278 l-29 -33 33 29 c30 28 37 36 29 36 -2 0 -16 -15 -33 -32z"/>
<path d="M1125 290 c-3 -5 -2 -10 4 -10 5 0 13 5 16 10 3 6 2 10 -4 10 -5 0
-13 -4 -16 -10z"/>
<path d="M247 264 c13 -11 24 -31 25 -46 2 -22 5 -25 18 -15 25 19 26 20 8 14
-12 -4 -18 0 -20 15 -2 11 -14 27 -28 36 l-25 14 22 -18z"/>
<path d="M1150 272 c0 -4 4 -13 9 -20 7 -11 9 -11 14 1 3 9 -1 18 -9 21 -8 3
-14 2 -14 -2z"/>
<path d="M1897 262 c-28 -30 -16 -83 18 -82 5 0 2 5 -7 11 -46 26 -3 92 45 69
21 -11 21 -10 3 4 -26 21 -39 20 -59 -2z"/>
<path d="M190 249 c-7 -11 -9 -23 -6 -27 3 -3 6 0 6 6 0 6 7 18 16 26 8 9 11
16 5 16 -6 0 -15 -9 -21 -21z"/>
<path d="M1971 223 c0 -12 -9 -27 -19 -32 -10 -5 -18 -21 -20 -36 -3 -45 -13
-48 -48 -14 -23 22 -35 43 -35 63 l-2 31 -4 -29 c-4 -23 3 -36 33 -67 29 -30
41 -36 51 -28 7 7 13 19 13 27 0 9 15 32 33 51 17 18 27 31 20 27 -6 -3 -13 1
-16 11 -4 14 -5 13 -6 -4z"/>
<path d="M2025 230 c-16 -7 -17 -9 -3 -9 9 -1 20 4 23 9 7 11 7 11 -20 0z"/>
<path d="M335 220 c-3 -5 -3 -10 2 -10 4 0 -15 -24 -42 -52 l-50 -53 57 54
c31 30 55 58 52 63 -7 11 -11 10 -19 -2z"/>
<path d="M1995 158 l-70 -73 73 70 c67 64 77 75 69 75 -1 0 -34 -33 -72 -72z"/>
<path d="M141 220 c-8 -17 -5 -58 4 -57 5 1 9 -4 8 -10 -2 -7 2 -12 9 -10 7 1
12 -3 13 -10 0 -6 3 -14 7 -18 14 -14 1 25 -14 42 -9 10 -18 29 -21 43 -2 14
-5 23 -6 20z"/>
<path d="M880 212 c0 -5 9 -17 20 -27 11 -10 20 -15 20 -12 0 4 -9 16 -20 27
-11 11 -20 16 -20 12z"/>
<path d="M1822 195 c-2 -22 8 -40 40 -72 23 -24 46 -43 50 -43 4 0 -12 18 -37
41 -30 28 -45 50 -48 72 l-4 32 -1 -30z"/>
<path d="M199 197 c7 -10 22 -17 33 -17 16 0 17 -3 8 -21 -7 -11 -10 -23 -7
-25 2 -2 9 7 15 21 10 22 9 26 -6 31 -9 3 -26 10 -37 16 -18 10 -19 9 -6 -5z"/>
<path d="M1070 194 c0 -8 5 -12 10 -9 6 4 8 11 5 16 -9 14 -15 11 -15 -7z"/>
<path d="M1020 156 c0 -9 5 -16 10 -16 6 0 10 4 10 9 0 6 -4 13 -10 16 -5 3
-10 -1 -10 -9z"/>
<path d="M204 103 c1 -7 6 -16 11 -20 4 -5 5 -2 0 6 -6 10 -4 13 7 9 8 -4 15
-1 15 6 0 6 -8 12 -17 12 -10 0 -17 -6 -16 -13z"/>
</g>
</svg>
